<svg xmlns="http://www.w3.org/2000/svg" enable-background="new 0 0 192 192" height="192" viewBox="0 0 192 192" width="192"><rect fill="none" height="192" width="192"/><g><g><path d="M162.65 57.96C157.45 36.19 137.86 20 114.5 20h-51C36.16 20 14 42.16 14 69.5c0 14.16 5.95 26.94 15.49 35.96l133.16-47.5z" fill="#B0C6FF"/><path d="M29.49 105.46c2.14 8.48 6.54 16.32 12.83 22.61l50.95 50.95c.63.63 1.48.98 2.38.98 1.85 0 3.36-1.5 3.36-3.36V143h29.5c27.62 0 49.96-22.62 49.49-50.35-.23-13.67-6.1-25.91-15.35-34.7L29.49 105.46z" fill="#578CFF"/><path d="M114.5 119c27.34 0 49.5-22.16 49.5-49.5 0-3.97-.47-7.84-1.35-11.54C153.54 49.3 141.16 44 127.69 44H77.5C50.16 44 28 66.16 28 93.5c0 4.07.51 8.08 1.49 11.96C38.36 113.85 50.33 119 63.5 119h51z" fill="#0057CC"/></g></g></svg>